<?xml version="1.0" encoding="UTF-8" standalone="no"?>
<svg
   xmlns:dc="http://purl.org/dc/elements/1.1/"
   xmlns:cc="http://creativecommons.org/ns#"
   xmlns:rdf="http://www.w3.org/1999/02/22-rdf-syntax-ns#"
   xmlns:svg="http://www.w3.org/2000/svg"
   xmlns="http://www.w3.org/2000/svg"
   xmlns:sodipodi="http://sodipodi.sourceforge.net/DTD/sodipodi-0.dtd"
   xmlns:inkscape="http://www.inkscape.org/namespaces/inkscape"
   version="1.1"
   viewBox="0 0 588 206"
   id="svg1036"
   sodipodi:docname="existdb.svg"
   width="588"
   height="206"
   inkscape:version="0.92.3 (2405546, 2018-03-11)"
   inkscape:export-filename="/home/rep/git/eXist-db/eclipse-plugin/logos/existdb.png"
   inkscape:export-xdpi="34.494518"
   inkscape:export-ydpi="34.494518">
  <metadata
     id="metadata1042">
    <rdf:RDF>
      <cc:Work
         rdf:about="">
        <dc:format>image/svg+xml</dc:format>
        <dc:type
           rdf:resource="http://purl.org/dc/dcmitype/StillImage" />
        <dc:title></dc:title>
      </cc:Work>
    </rdf:RDF>
  </metadata>
  <defs
     id="defs1040" />
  <sodipodi:namedview
     pagecolor="#ffffff"
     bordercolor="#666666"
     borderopacity="1"
     objecttolerance="10"
     gridtolerance="10"
     guidetolerance="10"
     inkscape:pageopacity="0"
     inkscape:pageshadow="2"
     inkscape:window-width="2815"
     inkscape:window-height="1652"
     id="namedview1038"
     showgrid="false"
     inkscape:zoom="3.3384354"
     inkscape:cx="294"
     inkscape:cy="81.280946"
     inkscape:window-x="248"
     inkscape:window-y="236"
     inkscape:window-maximized="0"
     inkscape:current-layer="svg1036" />
  <path
     d="m 168,84.8 c 0,10.3 -8.35,18.6 -18.6,18.6 -10.3,0 -18.6,-8.35 -18.6,-18.6 0,-10.3 8.35,-18.6 18.6,-18.6 10.3,0 18.6,8.35 18.6,18.6"
     id="path978"
     inkscape:connector-curvature="0"
     style="fill:#737577" />
  <path
     d="m 195,79.3 c 0,5.01 -4.06,9.07 -9.08,9.07 -5.01,0 -9.07,-4.06 -9.07,-9.07 0,-5.01 4.06,-9.07 9.07,-9.07 5.01,0 9.08,4.06 9.08,9.07"
     id="path980"
     inkscape:connector-curvature="0"
     style="fill:#858789" />
  <path
     d="m 190,112.1 c 0,6.4 -5.19,11.6 -11.6,11.6 -6.4,0 -11.6,-5.19 -11.6,-11.6 0,-6.4 5.19,-11.6 11.6,-11.6 6.4,0 11.6,5.19 11.6,11.6"
     id="path982"
     inkscape:connector-curvature="0"
     style="fill:#858789" />
  <path
     d="m 125,165 c 0,8.07 -6.54,14.6 -14.6,14.6 -8.07,0 -14.6,-6.54 -14.6,-14.6 0,-8.07 6.54,-14.6 14.6,-14.6 8.07,0 14.6,6.54 14.6,14.6"
     id="path984"
     inkscape:connector-curvature="0"
     style="fill:#858789" />
  <path
     d="m 100,64.6 c 0,-4.18 3.38,-7.56 7.56,-7.56 4.18,0 7.56,3.38 7.56,7.56 0,4.18 -3.38,7.56 -7.56,7.56 -4.18,0 -7.56,-3.38 -7.56,-7.56"
     id="path986"
     inkscape:connector-curvature="0"
     style="fill:#858789" />
  <path
     d="m 123,130 c 0,2.78 -2.26,5.04 -5.04,5.04 -2.78,0 -5.04,-2.26 -5.04,-5.04 0,-2.79 2.26,-5.04 5.04,-5.04 2.78,0 5.04,2.26 5.04,5.04"
     id="path988"
     inkscape:connector-curvature="0"
     style="fill:#858789" />
  <path
     d="m 235,178 c 0,3.9 -3.16,7.06 -7.06,7.06 -3.9,0 -7.06,-3.16 -7.06,-7.06 0,-3.9 3.16,-7.06 7.06,-7.06 3.9,0 7.06,3.16 7.06,7.06"
     id="path990"
     inkscape:connector-curvature="0"
     style="fill:#858789" />
  <path
     d="M 25.2,103.7 H 77.4 C 75.5,96.5 66.1,85.9 50.1,84.6 34.4,85.4 26.7,96.3 25.2,103.7 m -20.1,8.8 c 0.185,-24.4 19.7,-44.9 45,-44.9 24,0 43,17.4 44.4,41.7 v 0.898 c 0,0.361 0,1.26 -0.184,1.62 -0.552,4.31 -4.42,7.19 -9.59,7.19 h -58.6 c 0.922,4.13 2.95,8.81 6.27,11.9 3.87,4.32 11.2,7.55 17.7,8.09 6.64,0.54 14.6,-1.08 19.2,-4.49 3.87,-3.96 11.4,-3.42 13.8,-0.539 2.4,2.52 4.24,7.91 0,11.7 -9.04,8.09 -19.9,11.9 -33,11.9 -25.3,-0.181 -44.8,-20.5 -45,-44.9"
     id="path992"
     inkscape:connector-curvature="0"
     style="fill:#4d4c4e" />
  <path
     d="m 259,77.6 v 70.1 c 0,5.39 -4.24,9.71 -9.96,9.71 -5.53,0 -9.96,-4.31 -9.96,-9.71 V 77.6 c 0,-5.75 4.42,-9.88 9.96,-9.88 5.72,0 9.96,4.13 9.96,9.88"
     id="path994"
     inkscape:connector-curvature="0"
     style="fill:#4d4c4e" />
  <path
     d="m 266,132 c 3.32,-4.31 9.77,-4.85 13.8,-1.44 4.79,3.95 13.1,8.08 20.3,7.91 4.98,0 9.59,-1.62 12.5,-3.42 2.58,-2.16 3.32,-3.96 3.32,-5.39 0,-0.899 -0.185,-1.26 -0.554,-1.8 -0.185,-0.539 -0.922,-1.26 -2.4,-2.16 -2.58,-1.8 -8.11,-3.78 -14.8,-5.03 h -0.182 c -5.72,-1.08 -11.2,-2.52 -16,-4.67 -4.98,-2.34 -9.4,-5.57 -12.7,-10.4 -2.03,-3.24 -3.13,-7.19 -3.13,-11.3 0,-8.27 4.79,-15.3 10.9,-19.8 6.45,-4.31 14.2,-6.65 22.7,-6.65 12.7,0 21.8,5.93 27.7,9.89 4.42,2.87 5.72,8.81 2.95,13.3 -2.95,4.31 -9.03,5.57 -13.6,2.52 -5.9,-3.78 -11.1,-6.65 -17,-6.65 -4.61,0 -8.66,1.44 -11.1,3.24 -2.4,1.62 -2.95,3.23 -2.95,4.13 0,0.719 0,0.899 0.369,1.44 0.184,0.36 0.738,1.08 2.03,1.8 2.4,1.62 7.19,3.24 13.5,4.31 l 0.182,0.18 h 0.186 c 6.08,1.08 11.8,2.7 17.1,5.21 4.98,2.16 9.96,5.57 13.1,10.6 2.21,3.59 3.5,7.73 3.5,11.9 0,8.81 -4.98,16.2 -11.6,20.8 -6.64,4.49 -14.9,7.19 -24,7.19 -14.4,-0.181 -25.4,-6.65 -32.8,-12.4 -4.06,-3.24 -4.61,-9.35 -1.29,-13.3"
     id="path996"
     inkscape:connector-curvature="0"
     style="fill:#4d4c4e" />
  <path
     d="m 385,77.4 c 0,5.39 -4.79,9.88 -10.3,9.88 h -4.61 v 50.1 c 5.72,0 10.1,4.5 10.1,10.1 0,5.57 -4.43,9.88 -10.1,9.88 -11.2,0 -20.5,-8.99 -20.5,-20 v -50.1 h -5.35 c -5.72,0 -10.1,-4.49 -10.1,-9.88 0,-5.57 4.42,-9.88 10.1,-9.88 h 5.35 V 41.4 c 0,-5.57 4.61,-9.88 10.3,-9.88 5.72,0 10.1,4.31 10.1,9.88 v 26.1 h 4.61 c 5.53,0 10.3,4.31 10.3,9.88"
     id="path998"
     inkscape:connector-curvature="0"
     style="fill:#4d4c4e" />
  <path
     d="m 175,135 c 0,6.12 -4.96,11.1 -11.1,11.1 -6.12,0 -11.1,-4.96 -11.1,-11.1 0,-6.12 4.96,-11.1 11.1,-11.1 6.12,0 11.1,4.97 11.1,11.1"
     id="path1000"
     inkscape:connector-curvature="0"
     style="fill:#4d4c4e" />
  <path
     d="m 205,157 c 0,7.24 -5.87,13.1 -13.1,13.1 -7.24,0 -13.1,-5.87 -13.1,-13.1 0,-7.24 5.87,-13.1 13.1,-13.1 7.24,0 13.1,5.87 13.1,13.1"
     id="path1002"
     inkscape:connector-curvature="0"
     style="fill:#4d4c4e" />
  <path
     d="m 120,44 c 0,4.45 -3.61,8.06 -8.07,8.06 -4.45,0 -8.06,-3.61 -8.06,-8.06 0,-4.45 3.61,-8.06 8.06,-8.06 4.46,0 8.07,3.61 8.07,8.06"
     id="path1004"
     inkscape:connector-curvature="0"
     style="fill:#4d4c4e" />
  <path
     d="m 96.8,179 c 0,3.9 -3.16,7.06 -7.06,7.06 -3.9,0 -7.06,-3.16 -7.06,-7.06 0,-3.9 3.16,-7.06 7.06,-7.06 3.9,0 7.06,3.16 7.06,7.06"
     id="path1006"
     inkscape:connector-curvature="0"
     style="fill:#4d4c4e" />
  <path
     d="m 187,58.6 c 0,4.18 -3.39,7.56 -7.56,7.56 -4.18,0 -7.56,-3.38 -7.56,-7.56 0,-4.18 3.38,-7.56 7.56,-7.56 4.18,0 7.56,3.38 7.56,7.56"
     id="path1008"
     inkscape:connector-curvature="0"
     style="fill:#4d4c4e" />
  <path
     d="m 139,58.6 c 0,5.84 -4.74,10.6 -10.6,10.6 -5.84,0 -10.6,-4.74 -10.6,-10.6 0,-5.85 4.74,-10.6 10.6,-10.6 5.85,0 10.6,4.74 10.6,10.6"
     id="path1010"
     inkscape:connector-curvature="0"
     style="fill:#0088cc" />
  <path
     d="m 126,81.3 c 0,3.9 -3.16,7.06 -7.06,7.06 -3.9,0 -7.06,-3.16 -7.06,-7.06 0,-3.9 3.16,-7.06 7.06,-7.06 3.9,0 7.06,3.16 7.06,7.06"
     id="path1012"
     inkscape:connector-curvature="0"
     style="fill:#0088cc" />
  <path
     d="m 422,87.2 c -6.64,0 -12.7,2.7 -17.3,7.37 -4.61,4.49 -7.38,11 -7.38,18.2 0,6.83 2.76,13.3 7.38,17.8 4.61,4.67 10.7,7.37 17.3,7.37 6.82,0 12.7,-2.7 17.3,-7.37 4.61,-4.49 7.38,-11 7.38,-17.8 0,-7.19 -2.77,-13.7 -7.38,-18.2 C 434.69,89.9 428.8,87.2 422,87.2 m 44.8,60.6 c 0,5.21 -4.42,9.71 -9.96,9.71 -4.98,0 -8.85,-3.42 -9.77,-7.73 -7.01,4.67 -15.9,7.73 -25.1,7.73 -24.9,0 -44.8,-20.5 -44.8,-44.8 0,-24.6 19.9,-45.1 44.8,-45.1 9.04,0 17.9,2.88 24.7,7.55 v -33.8 c 0,-5.21 4.42,-9.71 10.1,-9.71 5.53,0 9.96,4.49 9.96,9.71 v 71.2 0.18 35 z"
     id="path1014"
     inkscape:connector-curvature="0"
     style="fill:#0088cc" />
  <path
     d="m 493,112.7 c 0,6.83 2.77,13.3 7.38,17.8 4.61,4.67 10.5,7.37 17.3,7.37 6.64,0 12.7,-2.7 17.3,-7.37 4.61,-4.49 7.38,-11 7.38,-17.8 0,-7.19 -2.76,-13.7 -7.38,-18.2 -4.61,-4.67 -10.7,-7.37 -17.3,-7.37 -6.82,0 -12.7,2.7 -17.3,7.37 -4.61,4.49 -7.38,11 -7.38,18.2 m -20.1,0 v -0.181 -71.2 c 0,-5.21 4.43,-9.7 9.96,-9.7 5.72,0 10.1,4.49 10.1,9.7 v 33.8 c 6.82,-4.67 15.7,-7.55 24.7,-7.55 24.9,0 44.8,20.5 44.8,45.1 0,24.3 -19.9,44.8 -44.8,44.8 -9.22,0 -18.1,-3.06 -25.1,-7.73 -0.921,4.31 -4.79,7.73 -9.77,7.73 -5.53,0 -9.96,-4.5 -9.96,-9.71 v -35 z"
     id="path1016"
     inkscape:connector-curvature="0"
     style="fill:#0088cc" />
  <path
     d="m 235,39.5 c 0,4.18 -3.38,7.56 -7.56,7.56 -4.18,0 -7.56,-3.38 -7.56,-7.56 0,-4.18 3.38,-7.56 7.56,-7.56 4.18,0 7.56,3.38 7.56,7.56"
     id="path1018"
     inkscape:connector-curvature="0"
     style="fill:#0088cc" />
  <path
     d="m 219,57.1 c 0,7.8 -6.32,14.1 -14.1,14.1 -7.8,0 -14.1,-6.32 -14.1,-14.1 0,-7.79 6.32,-14.1 14.1,-14.1 7.79,0 14.1,6.32 14.1,14.1"
     id="path1020"
     inkscape:connector-curvature="0"
     style="fill:#0088cc" />
  <path
     d="m 148,118 c 0,5.57 -4.51,10.1 -10.1,10.1 -5.57,0 -10.1,-4.51 -10.1,-10.1 0,-5.57 4.51,-10.1 10.1,-10.1 5.57,0 10.1,4.51 10.1,10.1"
     id="path1022"
     inkscape:connector-curvature="0"
     style="fill:#0088cc" />
  <path
     d="m 139,144 c 0,5.01 -4.06,9.07 -9.07,9.07 -5.01,0 -9.07,-4.06 -9.07,-9.07 0,-5.01 4.06,-9.07 9.07,-9.07 5.01,0 9.07,4.06 9.07,9.07"
     id="path1024"
     inkscape:connector-curvature="0"
     style="fill:#0088cc" />
  <path
     d="m 213,132 c 0,5.01 -4.06,9.07 -9.07,9.07 -5.01,0 -9.07,-4.06 -9.07,-9.07 0,-5.01 4.06,-9.07 9.07,-9.07 5.01,0 9.07,4.06 9.07,9.07"
     id="path1026"
     inkscape:connector-curvature="0"
     style="fill:#0088cc" />
  <path
     d="m 227,157 c 0,4.45 -3.61,8.06 -8.06,8.06 -4.45,0 -8.06,-3.61 -8.06,-8.06 0,-4.45 3.61,-8.06 8.06,-8.06 4.45,0 8.06,3.61 8.06,8.06"
     id="path1028"
     inkscape:connector-curvature="0"
     style="fill:#0088cc" />
  <path
     d="m 98.6,40.5 c 0,2.78 -2.26,5.04 -5.04,5.04 -2.78,0 -5.04,-2.26 -5.04,-5.04 0,-2.78 2.26,-5.04 5.04,-5.04 2.78,0 5.04,2.26 5.04,5.04"
     id="path1030"
     inkscape:connector-curvature="0"
     style="fill:#0088cc" />
  <path
     d="m 96.8,26.9 c 0,2.78 -2.26,5.04 -5.04,5.04 -2.78,0 -5.04,-2.26 -5.04,-5.04 0,-2.78 2.26,-5.04 5.04,-5.04 2.78,0 5.04,2.26 5.04,5.04"
     id="path1032"
     inkscape:connector-curvature="0"
     style="fill:#0088cc" />
  <path
     d="m 113,140 c 0,3.34 -2.71,6.05 -6.05,6.05 -3.34,0 -6.05,-2.71 -6.05,-6.05 0,-3.34 2.71,-6.05 6.05,-6.05 3.34,0 6.05,2.71 6.05,6.05"
     id="path1034"
     inkscape:connector-curvature="0"
     style="fill:#0088cc" />
</svg>
