<?xml version="1.0" encoding="UTF-8" standalone="no"?>
<svg
   xmlns:dc="http://purl.org/dc/elements/1.1/"
   xmlns:cc="http://creativecommons.org/ns#"
   xmlns:rdf="http://www.w3.org/1999/02/22-rdf-syntax-ns#"
   xmlns:svg="http://www.w3.org/2000/svg"
   xmlns="http://www.w3.org/2000/svg"
   xmlns:sodipodi="http://sodipodi.sourceforge.net/DTD/sodipodi-0.dtd"
   xmlns:inkscape="http://www.inkscape.org/namespaces/inkscape"
   version="1.1"
   viewBox="0 0 164.2 164.2"
   id="svg993"
   sodipodi:docname="existdb-icon.svg"
   width="164.2"
   height="164.2"
   inkscape:version="0.92.3 (2405546, 2018-03-11)">
  <metadata
     id="metadata999">
    <rdf:RDF>
      <cc:Work
         rdf:about="">
        <dc:format>image/svg+xml</dc:format>
        <dc:type
           rdf:resource="http://purl.org/dc/dcmitype/StillImage" />
        <dc:title></dc:title>
      </cc:Work>
    </rdf:RDF>
  </metadata>
  <defs
     id="defs997" />
  <sodipodi:namedview
     pagecolor="#ffffff"
     bordercolor="#666666"
     borderopacity="1"
     objecttolerance="10"
     gridtolerance="10"
     guidetolerance="10"
     inkscape:pageopacity="0"
     inkscape:pageshadow="2"
     inkscape:window-width="3840"
     inkscape:window-height="2089"
     id="namedview995"
     showgrid="false"
     fit-margin-top="0"
     fit-margin-left="0"
     fit-margin-right="0"
     fit-margin-bottom="0"
     inkscape:zoom="5.7007042"
     inkscape:cx="131.67948"
     inkscape:cy="82.06"
     inkscape:window-x="0"
     inkscape:window-y="34"
     inkscape:window-maximized="1"
     inkscape:current-layer="svg993" />
  <path
     d="m 89.32,62.940006 c 0,10.3 -8.35,18.6 -18.6,18.6 -10.3,0 -18.6,-8.35 -18.6,-18.6 0,-10.3 8.35,-18.6 18.6,-18.6 10.3,0 18.6,8.35 18.6,18.6"
     id="path935"
     inkscape:connector-curvature="0"
     style="fill:#737577" />
  <path
     d="m 116.32,57.440006 c 0,5.01 -4.06,9.07 -9.08,9.07 -5.01,0 -9.07,-4.06 -9.07,-9.07 0,-5.01 4.06,-9.07 9.07,-9.07 5.01,0 9.08,4.06 9.08,9.07"
     id="path937"
     inkscape:connector-curvature="0"
     style="fill:#858789" />
  <path
     d="m 111.32,90.240006 c 0,6.4 -5.19,11.599994 -11.6,11.599994 -6.4,0 -11.6,-5.189994 -11.6,-11.599994 0,-6.4 5.19,-11.6 11.6,-11.6 6.4,0 11.6,5.19 11.6,11.6"
     id="path939"
     inkscape:connector-curvature="0"
     style="fill:#858789" />
  <path
     d="m 46.32,143.14001 c 0,8.07 -6.54,14.6 -14.6,14.6 -8.07,0 -14.6,-6.54 -14.6,-14.6 0,-8.07 6.54,-14.6 14.6,-14.6 8.07,0 14.6,6.54 14.6,14.6"
     id="path941"
     inkscape:connector-curvature="0"
     style="fill:#858789" />
  <path
     d="m 21.32,42.740006 c 0,-4.18 3.38,-7.56 7.56,-7.56 4.18,0 7.56,3.38 7.56,7.56 0,4.18 -3.38,7.56 -7.56,7.56 -4.18,0 -7.56,-3.38 -7.56,-7.56"
     id="path943"
     inkscape:connector-curvature="0"
     style="fill:#858789" />
  <path
     d="m 44.32,108.14001 c 0,2.78 -2.26,5.04 -5.04,5.04 -2.78,0 -5.04,-2.26 -5.04,-5.04 0,-2.79 2.26,-5.04 5.04,-5.04 2.78,0 5.04,2.26 5.04,5.04"
     id="path945"
     inkscape:connector-curvature="0"
     style="fill:#858789" />
  <path
     d="m 156.32,156.14001 c 0,3.9 -3.16,7.06 -7.06,7.06 -3.9,0 -7.06,-3.16 -7.06,-7.06 0,-3.9 3.16,-7.06 7.06,-7.06 3.9,0 7.06,3.16 7.06,7.06"
     id="path947"
     inkscape:connector-curvature="0"
     style="fill:#858789" />
  <path
     d="m 96.32,113.14001 c 0,6.12 -4.96,11.1 -11.1,11.1 -6.12,0 -11.1,-4.96 -11.1,-11.1 0,-6.12 4.96,-11.1 11.1,-11.1 6.12,0 11.1,4.97 11.1,11.1"
     id="path957"
     inkscape:connector-curvature="0"
     style="fill:#4d4c4e" />
  <path
     d="m 126.32,135.14001 c 0,7.24 -5.87,13.1 -13.1,13.1 -7.24,0 -13.1,-5.87 -13.1,-13.1 0,-7.24 5.87,-13.1 13.1,-13.1 7.24,0 13.1,5.87 13.1,13.1"
     id="path959"
     inkscape:connector-curvature="0"
     style="fill:#4d4c4e" />
  <path
     d="m 41.32,22.140006 c 0,4.45 -3.61,8.06 -8.07,8.06 -4.45,0 -8.06,-3.61 -8.06,-8.06 0,-4.45 3.61,-8.06 8.06,-8.06 4.46,0 8.07,3.61 8.07,8.06"
     id="path961"
     inkscape:connector-curvature="0"
     style="fill:#4d4c4e" />
  <path
     d="m 18.12,157.14001 c 0,3.9 -3.16,7.06 -7.06,7.06 -3.9,0 -7.06,-3.16 -7.06,-7.06 0,-3.9 3.16,-7.06 7.06,-7.06 3.9,0 7.06,3.16 7.06,7.06"
     id="path963"
     inkscape:connector-curvature="0"
     style="fill:#4d4c4e" />
  <path
     d="m 108.32,36.740006 c 0,4.18 -3.39,7.56 -7.56,7.56 -4.18,0 -7.56,-3.38 -7.56,-7.56 0,-4.18 3.38,-7.56 7.56,-7.56 4.18,0 7.56,3.38 7.56,7.56"
     id="path965"
     inkscape:connector-curvature="0"
     style="fill:#4d4c4e" />
  <path
     d="m 60.32,36.740006 c 0,5.84 -4.74,10.6 -10.6,10.6 -5.84,0 -10.6,-4.74 -10.6,-10.6 0,-5.85 4.74,-10.6 10.6,-10.6 5.85,0 10.6,4.74 10.6,10.6"
     id="path967"
     inkscape:connector-curvature="0"
     style="fill:#0088cc" />
  <path
     d="m 47.32,59.440006 c 0,3.9 -3.16,7.06 -7.06,7.06 -3.9,0 -7.06,-3.16 -7.06,-7.06 0,-3.9 3.16,-7.06 7.06,-7.06 3.9,0 7.06,3.16 7.06,7.06"
     id="path969"
     inkscape:connector-curvature="0"
     style="fill:#0088cc" />
  <path
     d="m 156.32,17.640006 c 0,4.18 -3.38,7.56 -7.56,7.56 -4.18,0 -7.56,-3.38 -7.56,-7.56 0,-4.18 3.38,-7.56 7.56,-7.56 4.18,0 7.56,3.38 7.56,7.56"
     id="path975"
     inkscape:connector-curvature="0"
     style="fill:#0088cc" />
  <path
     d="m 140.32,35.240006 c 0,7.8 -6.32,14.1 -14.1,14.1 -7.8,0 -14.1,-6.32 -14.1,-14.1 0,-7.79 6.32,-14.1 14.1,-14.1 7.79,0 14.1,6.32 14.1,14.1"
     id="path977"
     inkscape:connector-curvature="0"
     style="fill:#0088cc" />
  <path
     d="M 69.32,96.140006 C 69.32,101.71 64.81,106.24 59.22,106.24 c -5.57,0 -10.1,-4.51 -10.1,-10.099994 0,-5.57 4.51,-10.1 10.1,-10.1 5.57,0 10.1,4.51 10.1,10.1"
     id="path979"
     inkscape:connector-curvature="0"
     style="fill:#0088cc" />
  <path
     d="m 60.32,122.14001 c 0,5.01 -4.06,9.07 -9.07,9.07 -5.01,0 -9.07,-4.06 -9.07,-9.07 0,-5.01 4.06,-9.07 9.07,-9.07 5.01,0 9.07,4.06 9.07,9.07"
     id="path981"
     inkscape:connector-curvature="0"
     style="fill:#0088cc" />
  <path
     d="m 134.32,110.14001 c 0,5.01 -4.06,9.07 -9.07,9.07 -5.01,0 -9.07,-4.06 -9.07,-9.07 0,-5.01 4.06,-9.07 9.07,-9.07 5.01,0 9.07,4.06 9.07,9.07"
     id="path983"
     inkscape:connector-curvature="0"
     style="fill:#0088cc" />
  <path
     d="m 148.32,135.14001 c 0,4.45 -3.61,8.06 -8.06,8.06 -4.45,0 -8.06,-3.61 -8.06,-8.06 0,-4.45 3.61,-8.06 8.06,-8.06 4.45,0 8.06,3.61 8.06,8.06"
     id="path985"
     inkscape:connector-curvature="0"
     style="fill:#0088cc" />
  <path
     d="m 19.92,18.640006 c 0,2.78 -2.26,5.04 -5.04,5.04 -2.78,0 -5.04,-2.26 -5.04,-5.04 0,-2.78 2.26,-5.04 5.04,-5.04 2.78,0 5.04,2.26 5.04,5.04"
     id="path987"
     inkscape:connector-curvature="0"
     style="fill:#0088cc" />
  <path
     d="m 18.12,5.0400062 c 0,2.78 -2.26,5.0399998 -5.04,5.0399998 -2.78,0 -5.04,-2.2599998 -5.04,-5.0399998 0,-2.78 2.26,-5.0400000964844 5.04,-5.0400000964844 2.78,0 5.04,2.2600000964844 5.04,5.0400000964844"
     id="path989"
     inkscape:connector-curvature="0"
     style="fill:#0088cc" />
  <path
     d="m 34.32,118.14001 c 0,3.34 -2.71,6.05 -6.05,6.05 -3.34,0 -6.05,-2.71 -6.05,-6.05 0,-3.34 2.71,-6.05 6.05,-6.05 3.34,0 6.05,2.71 6.05,6.05"
     id="path991"
     inkscape:connector-curvature="0"
     style="fill:#0088cc" />
</svg>
